<svg xmlns="http://www.w3.org/2000/svg" xmlns:xlink="http://www.w3.org/1999/xlink" width="500" zoomAndPan="magnify" viewBox="0 0 375 374.999991" height="500" preserveAspectRatio="xMidYMid meet" version="1.2"><defs/><g id="2ab1d5371b"><rect x="0" width="375" y="0" height="374.999991" style="fill:#ffffff;fill-opacity:1;stroke:none;"/><rect x="0" width="375" y="0" height="374.999991" style="fill:#004aad;fill-opacity:1;stroke:none;"/><g style="fill:#ffffff;fill-opacity:1;"><g transform="translate(76.569698, 269.605638)"><path style="stroke:none" d="M 203.84375 -200 C 201.488281 -196.988281 200.203125 -193.335938 199.984375 -189.046875 C 199.773438 -184.765625 199.882812 -180.375 200.3125 -175.875 C 200.3125 -175.445312 200.421875 -174.695312 200.640625 -173.625 C 201.066406 -168.695312 201.222656 -163.820312 201.109375 -159 C 201.003906 -154.175781 199.453125 -150.15625 196.453125 -146.9375 C 192.378906 -147.363281 189.429688 -148.96875 187.609375 -151.75 C 185.785156 -154.539062 184.445312 -157.867188 183.59375 -161.734375 C 182.738281 -166.234375 182.039062 -171 181.5 -176.03125 C 180.96875 -181.070312 179.84375 -185.304688 178.125 -188.734375 C 171.050781 -190.660156 162.421875 -191.890625 152.234375 -192.421875 C 142.054688 -192.960938 133.109375 -192.914062 125.390625 -192.28125 C 125.390625 -184.769531 125.390625 -177.15625 125.390625 -169.4375 C 125.390625 -161.726562 125.285156 -153.90625 125.078125 -145.96875 C 125.078125 -141.894531 125.019531 -137.875 124.90625 -133.90625 C 124.800781 -129.945312 124.75 -125.929688 124.75 -121.859375 C 124.539062 -105.140625 124.4375 -88.363281 124.4375 -71.53125 C 124.4375 -54.707031 124.753906 -38.148438 125.390625 -21.859375 C 127.753906 -19.929688 130.703125 -18.59375 134.234375 -17.84375 C 137.773438 -17.09375 141.148438 -16.128906 144.359375 -14.953125 C 147.578125 -13.773438 149.722656 -11.46875 150.796875 -8.03125 C 149.722656 -5.25 147.097656 -3.375 142.921875 -2.40625 C 138.742188 -1.445312 133.867188 -0.96875 128.296875 -0.96875 C 122.722656 -0.96875 117.148438 -1.179688 111.578125 -1.609375 C 108.785156 -1.609375 106.101562 -1.660156 103.53125 -1.765625 C 100.957031 -1.867188 98.597656 -1.921875 96.453125 -1.921875 C 95.390625 -1.921875 94.320312 -1.867188 93.25 -1.765625 C 92.175781 -1.660156 90.992188 -1.609375 89.703125 -1.609375 C 85.628906 -1.179688 81.769531 -1.179688 78.125 -1.609375 C 74.488281 -2.035156 72.5625 -4.5 72.34375 -9 C 72.34375 -10.71875 72.984375 -12.328125 74.265625 -13.828125 C 75.554688 -15.328125 76.628906 -16.828125 77.484375 -18.328125 C 81.128906 -16.828125 85.3125 -17.363281 90.03125 -19.9375 C 94.75 -22.507812 98.070312 -25.722656 100 -29.578125 C 99.78125 -40.941406 99.671875 -52.195312 99.671875 -63.34375 C 99.671875 -74.488281 99.671875 -85.523438 99.671875 -96.453125 C 99.671875 -104.816406 99.671875 -113.070312 99.671875 -121.21875 C 99.671875 -129.363281 99.671875 -137.613281 99.671875 -145.96875 C 99.671875 -161.1875 99.347656 -176.625 98.703125 -192.28125 C 90.554688 -193.78125 82.035156 -193.992188 73.140625 -192.921875 C 64.253906 -191.847656 56.378906 -190.773438 49.515625 -189.703125 C 48.441406 -189.484375 47.472656 -189.320312 46.609375 -189.21875 C 45.753906 -189.113281 44.898438 -188.953125 44.046875 -188.734375 C 43.617188 -186.378906 43.242188 -183.914062 42.921875 -181.34375 C 42.597656 -178.769531 42.4375 -176.195312 42.4375 -173.625 C 42.007812 -168.050781 41.367188 -162.800781 40.515625 -157.875 C 39.660156 -152.945312 37.410156 -149.300781 33.765625 -146.9375 C 31.617188 -146.726562 30.007812 -147 28.9375 -147.75 C 27.863281 -148.5 26.789062 -149.410156 25.71875 -150.484375 C 25.289062 -150.910156 24.804688 -151.335938 24.265625 -151.765625 C 23.734375 -152.191406 23.144531 -152.617188 22.5 -153.046875 C 23.789062 -161.835938 24.4375 -171.109375 24.4375 -180.859375 C 24.4375 -190.609375 25.828125 -199.019531 28.609375 -206.09375 C 38.898438 -208.03125 50.476562 -209.050781 63.34375 -209.15625 C 76.207031 -209.257812 88.742188 -209.207031 100.953125 -209 C 104.816406 -208.78125 108.570312 -208.671875 112.21875 -208.671875 C 115.863281 -208.671875 119.398438 -208.671875 122.828125 -208.671875 C 126.472656 -208.671875 130.171875 -208.773438 133.921875 -208.984375 C 137.671875 -209.203125 141.367188 -209.421875 145.015625 -209.640625 C 156.585938 -210.285156 167.625 -210.390625 178.125 -209.953125 C 188.632812 -209.523438 197.207031 -206.207031 203.84375 -200 Z M 203.84375 -200 "/></g></g></g></svg>